<?xml version="1.0" standalone="no"?>
<!DOCTYPE svg PUBLIC "-//W3C//DTD SVG 20010904//EN"
 "http://www.w3.org/TR/2001/REC-SVG-20010904/DTD/svg10.dtd">
<svg version="1.0" xmlns="http://www.w3.org/2000/svg"
 width="210.000000pt" height="210.000000pt" viewBox="0 0 210.000000 210.000000"
 preserveAspectRatio="xMidYMid meet">
<metadata>
Created by potrace 1.14, written by Peter Selinger 2001-2017
</metadata>
<g transform="translate(0.000000,210.000000) scale(0.100000,-0.100000)"
fill="#000000" stroke="none">
<path d="M84 1320 c-33 -13 -54 -50 -54 -95 0 -44 15 -67 73 -109 30 -22 37
-33 35 -54 -3 -24 -7 -27 -38 -26 -19 0 -43 2 -54 5 -14 3 -19 -2 -21 -23 -4
-34 9 -45 60 -51 72 -7 125 37 125 104 0 42 -25 78 -74 108 -40 25 -51 54 -27
74 16 15 31 15 63 2 13 -5 20 0 28 20 13 34 15 31 -21 44 -37 13 -66 13 -95 1z"/>
<path d="M247 1321 c-18 -6 -25 -21 -20 -41 3 -12 13 -17 34 -15 l29 3 0 -149
0 -149 35 0 34 0 3 148 c3 145 3 147 26 148 12 1 26 2 30 3 12 2 12 40 1 47
-12 7 -152 11 -172 5z"/>
<path d="M688 1322 c-16 -3 -18 -20 -18 -178 l0 -174 35 0 35 0 0 174 c0 157
-2 174 -17 178 -10 2 -26 2 -35 0z"/>
<path d="M833 1322 c-23 -3 -23 -5 -23 -178 l0 -174 33 0 33 0 -1 115 c-1 64
1 112 5 108 4 -4 26 -57 51 -116 l44 -108 40 3 40 3 1 170 c0 94 -1 173 -2
176 -2 3 -17 4 -34 1 l-31 -4 3 -113 c2 -63 1 -111 -2 -108 -3 2 -25 52 -50
110 -47 108 -60 123 -107 115z"/>
<path d="M460 1145 l0 -175 80 0 80 0 0 30 c0 29 -2 30 -45 30 l-45 0 0 45 0
45 39 0 c33 0 39 3 43 25 7 32 2 35 -44 35 l-39 0 3 43 c3 42 3 42 43 42 36 0
40 3 43 28 l3 27 -80 0 -81 0 0 -175z"/>
<path d="M1110 1144 l0 -176 81 4 c76 3 83 5 106 33 19 24 23 38 19 70 -3 22
-13 47 -24 55 -19 16 -19 17 -1 39 28 35 25 96 -6 125 -21 19 -37 23 -100 25
l-75 2 0 -177z m118 113 c20 -13 15 -65 -8 -77 -29 -15 -40 -5 -40 39 0 50 12
60 48 38z m10 -149 c29 -29 4 -80 -39 -83 -16 -1 -19 5 -19 47 0 43 2 48 23
48 13 0 28 -5 35 -12z"/>
<path d="M1370 1145 l0 -175 80 0 80 0 0 30 c0 29 -2 30 -45 30 l-45 0 0 45 0
45 39 0 c33 0 39 3 43 25 7 32 2 35 -44 35 l-38 0 0 43 0 43 43 0 c39 -1 42 1
45 27 l3 27 -80 0 -81 0 0 -175z"/>
<path d="M1580 1145 l0 -175 35 0 35 0 0 70 c0 39 4 70 9 70 5 0 22 -31 37
-70 27 -70 27 -70 65 -70 l38 0 -34 77 -35 76 20 22 c24 25 34 84 20 119 -13
36 -59 56 -130 56 l-60 0 0 -175z m128 74 c3 -30 -7 -44 -35 -53 -22 -7 -23
-5 -23 42 0 27 3 52 7 55 12 12 48 -19 51 -44z"/>
<path d="M1904 1311 c-107 -46 -109 -287 -4 -331 29 -12 136 -8 149 6 3 3 6
46 7 95 l1 90 -56 -3 c-57 -3 -58 -3 -52 -48 0 -6 9 -10 19 -8 14 2 18 -5 20
-39 3 -41 2 -43 -26 -43 -45 0 -66 31 -68 102 -4 102 26 137 105 123 34 -6 39
-4 44 17 4 12 2 27 -3 32 -13 13 -110 18 -136 7z"/>
<path d="M40 865 c0 -51 3 -65 15 -65 9 0 15 9 15 25 0 16 6 25 15 25 20 0 35
40 23 63 -5 10 -20 17 -38 17 l-30 0 0 -65z m42 13 c-9 -9 -12 -7 -12 12 0 19
3 21 12 12 9 -9 9 -15 0 -24z"/>
<path d="M125 865 c0 -43 4 -65 12 -65 6 0 13 12 15 28 l4 27 12 -27 c6 -16
18 -28 27 -28 14 0 14 3 1 29 -11 20 -12 31 -4 39 6 6 8 22 4 36 -5 21 -12 26
-39 26 l-33 0 1 -65z m48 39 c8 -8 -3 -34 -14 -34 -5 0 -9 9 -9 20 0 19 11 26
23 14z"/>
<path d="M232 921 c-19 -11 -26 -75 -12 -100 13 -24 52 -28 70 -6 6 8 12 30
12 50 0 55 -32 80 -70 56z m39 -23 c0 -7 2 -23 3 -35 3 -28 -8 -48 -23 -39
-12 8 -15 68 -4 79 10 11 23 8 24 -5z"/>
<path d="M320 865 c0 -51 3 -65 15 -65 9 0 15 9 15 25 0 16 6 25 15 25 22 0
18 17 -5 23 -23 6 -17 37 6 37 8 0 14 5 14 10 0 6 -13 10 -30 10 l-30 0 0 -65z"/>
<path d="M399 928 c-1 -2 -2 -32 -3 -67 l-2 -63 38 5 c21 3 40 1 43 -3 8 -13
45 1 56 21 8 15 4 24 -16 45 -26 26 -26 48 0 37 9 -3 15 1 15 11 0 26 -49 21
-59 -6 -7 -18 -3 -29 16 -49 28 -30 23 -37 -27 -35 -42 1 -56 32 -18 39 l23 4
-22 8 c-25 8 -31 35 -9 35 8 0 18 5 21 10 4 6 -7 10 -24 10 -17 0 -31 -1 -32
-2z"/>
<path d="M551 916 c-13 -15 1 -66 18 -66 5 0 12 -7 15 -16 5 -13 2 -15 -14
-11 -27 7 -35 -9 -11 -22 15 -8 23 -7 35 5 22 21 20 51 -4 64 -24 13 -27 42
-4 38 10 -2 19 3 21 10 6 17 -41 16 -56 -2z"/>
<path d="M628 918 c-9 -31 -2 -112 10 -115 9 -4 12 13 12 61 0 36 -4 66 -9 66
-5 0 -11 -6 -13 -12z"/>
<path d="M680 915 c-36 -44 6 -138 51 -115 10 6 20 14 20 18 6 32 4 80 -5 95
-13 21 -49 22 -66 2z m45 -50 c0 -41 -19 -59 -30 -26 -8 26 5 73 19 68 6 -2
11 -21 11 -42z"/>
<path d="M778 923 c-9 -22 -2 -117 10 -120 8 -3 12 8 13 34 l1 38 15 -37 c9
-23 23 -38 33 -38 14 0 16 11 16 65 0 46 -4 65 -13 65 -8 0 -13 -14 -14 -37
l-1 -38 -15 38 c-14 34 -37 49 -45 30z"/>
<path d="M891 870 c-14 -63 -8 -87 13 -57 16 21 36 22 36 2 0 -8 7 -15 15 -15
17 0 18 7 6 46 -5 16 -12 41 -15 57 -4 17 -13 27 -24 27 -14 0 -21 -14 -31
-60z m39 0 c0 -11 -4 -20 -9 -20 -5 0 -7 9 -4 20 3 11 7 20 9 20 2 0 4 -9 4
-20z"/>
<path d="M980 866 l0 -66 30 0 c17 0 30 5 30 10 0 6 -8 10 -18 10 -16 0 -18 8
-18 52 1 33 -4 53 -12 56 -9 3 -12 -14 -12 -62z"/>
<path d="M1095 914 c-17 -18 -19 -79 -2 -101 11 -15 57 -17 57 -3 0 6 -7 10
-15 10 -20 0 -35 39 -25 65 4 11 15 19 24 19 9 -1 16 4 16 12 0 19 -35 18 -55
-2z"/>
<path d="M1177 910 c-12 -17 -14 -41 -8 -82 2 -17 32 -36 50 -31 23 6 38 39
35 76 -5 55 -49 76 -77 37z m53 -52 c0 -31 -18 -47 -31 -27 -12 20 -11 53 3
67 15 15 28 -2 28 -40z"/>
<path d="M1271 865 c1 -47 6 -65 15 -65 8 0 14 11 15 28 l1 27 10 -27 c5 -16
16 -28 24 -28 17 0 17 5 4 31 -8 13 -7 25 0 39 16 30 -4 60 -41 60 l-30 0 2
-65z m49 19 c0 -8 -4 -14 -10 -14 -5 0 -10 9 -10 21 0 11 5 17 10 14 6 -3 10
-13 10 -21z"/>
<path d="M1363 865 c-1 -50 2 -65 13 -65 8 0 14 10 14 25 0 15 6 25 15 25 13
0 41 39 36 50 -10 20 -27 30 -50 30 -26 0 -27 -1 -28 -65z m47 31 c0 -8 -4
-18 -10 -21 -5 -3 -10 3 -10 14 0 12 5 21 10 21 6 0 10 -6 10 -14z"/>
<path d="M1460 915 c-21 -25 -15 -87 10 -107 41 -33 78 10 66 77 -8 44 -50 61
-76 30z m50 -50 c0 -32 -14 -54 -27 -41 -10 10 -10 60 0 73 15 20 27 5 27 -32z"/>
<path d="M1559 928 c-1 -2 -2 -31 -3 -65 -1 -45 2 -63 11 -63 7 0 13 12 13 28
l1 27 15 -27 c16 -31 60 -39 70 -13 4 8 12 15 20 15 8 0 14 -7 14 -15 0 -8 7
-15 16 -15 10 0 14 6 10 18 -3 9 -7 29 -10 45 -9 50 -17 67 -35 67 -13 0 -20
-15 -30 -61 -12 -58 -13 -60 -27 -41 -12 18 -12 25 -2 42 17 27 0 54 -36 58
-14 2 -27 2 -27 0z m41 -44 c0 -8 -4 -14 -10 -14 -5 0 -10 9 -10 21 0 11 5 17
10 14 6 -3 10 -13 10 -21z m90 -24 c0 -5 -5 -10 -11 -10 -5 0 -7 5 -4 10 3 6
8 10 11 10 2 0 4 -4 4 -10z"/>
<path d="M1730 920 c0 -5 5 -10 10 -10 6 0 10 -25 10 -55 0 -42 3 -55 15 -55
12 0 15 13 15 55 0 30 5 55 10 55 6 0 10 5 10 10 0 6 -16 10 -35 10 -19 0 -35
-4 -35 -10z"/>
<path d="M1819 928 c-1 -2 -3 -31 -4 -65 -1 -47 2 -63 12 -63 16 0 19 115 3
125 -5 3 -11 5 -11 3z"/>
<path d="M1870 915 c-17 -21 -15 -83 5 -105 35 -39 83 10 71 73 -9 46 -50 63
-76 32z m48 -53 c2 -31 -1 -42 -11 -42 -18 0 -29 37 -20 68 9 36 28 20 31 -26z"/>
<path d="M1969 913 c-5 -78 -3 -107 9 -110 8 -3 12 9 13 39 l1 43 15 -42 c9
-28 21 -43 31 -43 14 0 17 11 17 65 1 47 -3 65 -12 65 -8 0 -13 -14 -14 -37
l-1 -38 -15 38 c-16 38 -42 50 -44 20z"/>
</g>
</svg>
